<?xml version="1.0" encoding="iso-8859-1"?>
<!-- Generator: Adobe Illustrator 28.0.0, SVG Export Plug-In . SVG Version: 6.00 Build 0)  -->
<svg version="1.1" id="Layer_1" xmlns="http://www.w3.org/2000/svg" xmlns:xlink="http://www.w3.org/1999/xlink" x="0px" y="0px"
	 viewBox="0 0 434.34 113.28" style="enable-background:new 0 0 434.34 113.28;" xml:space="preserve">
<g>
	<path style="fill:#172B54;fill-opacity:0;" d="M60.2,0c-4.4,9.36-27.51,58.47-41.81,88.88c-6.62,14.07-11.35,24.13-11.48,24.4
		h105.27L60.2,0z"/>
	<path style="fill:#A9353A;" d="M18.39,88.88c-0.93-0.07-15.08-1.32-17.93-10.19c-0.81-2.54-0.91-6.36,2.75-12.94
		c9.93-17.85,32.46-28.9,42.8-33.39c-2.08,3.8-4.16,7.61-6.24,11.41c-3.71,1.66-9.63,4.82-15.41,10.65
		c-4.43,4.47-13.93,15.69-10.92,20.92c0.55,0.96,2.43,3.29,10.06,2.68"/>
	<path style="fill:#A9353A;" d="M70.04,23.51c21.38-5.23,37.26-0.84,39.5,6.76c2.45,8.32-11.56,19.96-12.98,21.12
		c-2.03-1.36-4.05-2.72-6.08-4.08c1.21-1.09,7.31-6.77,6.12-11.5c-1.28-5.07-10.84-8.71-23.83-5.83"/>
	<polygon style="fill:#172B54;" points="59.54,1.39 6.91,113.28 112.18,113.28 	"/>
	<path style="fill:#A9353A;" d="M48.15,62.68c-0.3,0,10.06-6.04,10.06-6.04l16.86,11.44c-2.11,2.36-4.69,4.83-7.82,7.16
		c-10.68,7.95-21.82,9.79-28.27,10.24c0.12-2.2,0.24-4.4,0.35-6.6c3.03-0.18,7.21-0.76,11.9-2.53c4.06-1.53,7.27-3.48,9.58-5.14
		C56.59,68.37,52.37,65.52,48.15,62.68z"/>
</g>
<path style="fill:#A9353A;" d="M126.87,62.37c-0.11-0.49-0.3-1.17-0.69-1.91c-0.19-0.37-0.49-0.94-0.98-1.45
	c-1.13-1.17-2.62-1.37-3.23-1.45c-0.65-0.09-1.98-0.27-3.39,0.47c-0.28,0.14-1.41,0.77-2.1,2.08c-0.21,0.4-0.33,0.76-0.51,1.54
	c-0.45,1.95-0.59,3.52-0.61,3.72c-0.19,2.32-0.24,4.31-0.24,5.78c0,1.82,0.06,3.12,0.11,4.05c0.05,1.02,0.11,1.86,0.22,2.82
	c0.14,1.17,0.29,1.98,0.54,2.84c0.28,0.95,0.51,1.36,0.6,1.52c0.18,0.3,0.57,0.94,1.33,1.48c0.55,0.39,1.04,0.55,1.35,0.64
	c0.74,0.23,1.33,0.25,1.85,0.26c0.45,0,1.14,0.02,2-0.2c0.55-0.14,1.12-0.28,1.73-0.74c0.49-0.37,0.77-0.77,0.95-1.04
	c0.15-0.23,0.55-0.85,0.91-2.45c0.21-0.92,0.3-1.68,0.35-2.17c0.09-0.94,0.16-2.25,0.04-3.84l-5.9,0.02l0.02-3.98l12.38,0.02
	c0.01,0.56,0.02,1.35,0,2.31c-0.02,1.03-0.09,3.41-0.49,6.38c0,0-0.25,1.87-0.72,3.43c-0.15,0.5-0.3,0.87-0.36,1.03
	c-0.16,0.39-0.34,0.84-0.66,1.38c-0.34,0.56-0.66,0.94-0.78,1.07c-0.15,0.17-0.53,0.59-1.1,1.02c-0.2,0.15-0.71,0.53-1.52,0.91
	c-1.27,0.6-2.36,0.78-3.3,0.93c0,0-1.22,0.2-2.49,0.23c-0.17,0-0.38,0-0.38,0c-0.08,0-0.15,0-0.24,0c-0.13,0-0.25,0-0.36,0
	c-0.05,0-0.1,0-0.19,0c-0.15,0-0.22,0-0.29,0s-0.17,0-0.29-0.01c-0.23-0.01-0.98-0.05-1.19-0.06c-1.21-0.08-2.42-0.39-2.42-0.39
	c-0.56-0.14-1.56-0.41-2.72-1.05c-0.45-0.25-1.33-0.77-2.13-1.54c-1.36-1.3-2.04-2.84-2.51-4.26c-1.31-3.96-1.35-8.03-1.34-9.86
	c0.06-7.02,0.63-9.75,1.05-11.01c0.77-2.27,1.56-3.34,2.23-4.05c1.9-2.01,4.35-2.67,5.11-2.87c1.23-0.33,2.49-0.44,2.91-0.47
	c0.97-0.08,1.71-0.07,2.28-0.05c0.8,0.02,1.79,0.04,3.07,0.26c0.67,0.11,1.46,0.25,2.46,0.62c0.33,0.12,0.81,0.3,1.4,0.63
	c0.41,0.23,1.2,0.71,2.03,1.53c0.76,0.76,1.2,1.45,1.56,2.03c0.49,0.79,0.81,1.5,1.03,2.04c-2.12,0.61-4.24,1.22-6.36,1.82
	L126.87,62.37z"/>
<path style="fill:#172B54;" d="M293.15,69.69c-0.74-0.08-1.38-0.08-1.87-0.06c-0.96,0.04-1.65,0.18-1.89,0.23
	c-0.73,0.16-1.12,0.33-1.31,0.42s-0.45,0.22-0.73,0.43c-0.67,0.51-0.98,1.16-1.1,1.41c-0.27,0.59-0.33,1.1-0.4,1.76
	c-0.05,0.43-0.05,0.79-0.05,1.05v14.12h-6.27V65.74h6.27v2.87c0.27-0.31,0.65-0.72,1.15-1.15c0.5-0.44,1.11-0.97,2.04-1.4
	c0.78-0.37,1.42-0.5,1.99-0.62c0.88-0.18,1.63-0.23,2.17-0.24v4.5V69.69z"/>
<path style="fill:#A9353A;" d="M153.71,69.56c-0.74-0.08-1.38-0.08-1.87-0.06c-0.96,0.04-1.65,0.18-1.89,0.23
	c-0.73,0.16-1.12,0.33-1.31,0.42s-0.45,0.22-0.73,0.43c-0.67,0.51-0.98,1.16-1.1,1.41c-0.27,0.59-0.33,1.1-0.4,1.76
	c-0.05,0.43-0.05,0.79-0.05,1.05v14.12h-6.27V65.61h6.27v2.87c0.27-0.31,0.65-0.72,1.15-1.15c0.5-0.44,1.11-0.97,2.04-1.4
	c0.78-0.37,1.42-0.5,1.99-0.62c0.88-0.18,1.63-0.23,2.17-0.24v4.5V69.56z"/>
<g>
	<path style="fill:#A9353A;" d="M177.36,77.83h-14.34c0,0.29,0,0.66,0.02,1.08c0.02,0.36,0.06,0.94,0.16,1.65
		c0.1,0.66,0.14,0.98,0.28,1.44c0.17,0.57,0.38,0.99,0.47,1.16c0.24,0.46,0.44,0.84,0.83,1.21c0.61,0.58,1.3,0.75,1.67,0.84
		c0.19,0.05,0.97,0.22,1.96,0c0.38-0.08,0.83-0.18,1.3-0.52c0.52-0.37,0.79-0.8,0.94-1.06c0.36-0.6,0.45-1.15,0.54-1.61
		c0.09-0.51,0.1-0.95,0.1-1.27l5.84,0.02c-0.05,0.65-0.14,1.19-0.24,1.61c-0.25,1.16-0.61,1.92-0.68,2.08
		c-0.13,0.28-0.26,0.51-0.28,0.54c-0.24,0.42-0.46,0.71-0.53,0.8c-0.11,0.15-0.32,0.4-0.61,0.69c-0.14,0.14-0.41,0.4-0.78,0.68
		c-0.16,0.12-0.55,0.4-1.11,0.69c-0.6,0.31-1.09,0.45-1.53,0.59c-0.29,0.09-1,0.29-1.98,0.42c-0.29,0.04-1.09,0.14-2.25,0.12
		c-1.2-0.02-2.34-0.04-3.7-0.43c-0.7-0.2-1.88-0.55-3.07-1.5c-1.74-1.39-2.39-3.18-2.72-4.15c-0.34-1-0.44-1.76-0.58-2.89
		c-0.15-1.26-0.27-3.09-0.07-5.35c1.65,0.01,3.68,0.03,6.03,0.04c1.18,0,4.12,0.01,7.94,0c1.77,0,3.89-0.02,6.31-0.04l0.09,3.14
		L177.36,77.83z"/>
	<path style="fill:#A9353A;" d="M166.99,68.62c0.47,0.02,1.7,0.06,2.5,0.94c0.1,0.12,0.16,0.2,0.27,0.36
		c0.44,0.66,0.62,1.3,0.81,2.24c0.14,0.7,0.29,1.56,0.4,2.55c2.1-0.01,4.21-0.02,6.31-0.04c-0.05-0.46-0.13-1.1-0.3-1.85
		c-0.16-0.73-0.38-1.7-0.9-2.8c-0.3-0.63-0.83-1.71-1.94-2.73c-1.27-1.18-2.59-1.63-3.25-1.85c-1.03-0.34-1.84-0.41-2.59-0.48
		c-1.04-0.09-2.59-0.22-4.47,0.31c-0.93,0.26-2.6,0.73-4.09,2.23c-1.2,1.21-1.7,2.58-1.97,3.33c-0.33,0.9-0.47,1.69-0.55,2.26
		l-0.23,1.59l6.03,0.04c0.03-0.31,0.08-0.8,0.17-1.39c0.19-1.29,0.3-2.01,0.71-2.84c0.24-0.49,0.48-0.98,1.02-1.34
		c0.42-0.28,0.87-0.39,1.05-0.43c0.11-0.03,0.49-0.11,1.02-0.09L166.99,68.62z"/>
</g>
<g>
	<path style="fill:#182C54;" d="M397.46,77.87h-14.34c0,0.29,0,0.66,0.02,1.08c0.02,0.36,0.06,0.94,0.16,1.65
		c0.1,0.66,0.14,0.98,0.28,1.44c0.17,0.57,0.38,0.99,0.47,1.16c0.24,0.46,0.44,0.84,0.83,1.21c0.61,0.58,1.3,0.75,1.67,0.84
		c0.19,0.05,0.97,0.22,1.96,0c0.38-0.08,0.83-0.18,1.3-0.52c0.52-0.37,0.79-0.8,0.94-1.06c0.36-0.6,0.45-1.15,0.54-1.61
		c0.09-0.51,0.1-0.95,0.1-1.27l5.84,0.02c-0.05,0.65-0.14,1.19-0.24,1.61c-0.25,1.16-0.61,1.92-0.68,2.08
		c-0.13,0.28-0.26,0.51-0.28,0.54c-0.24,0.42-0.46,0.71-0.53,0.8c-0.11,0.15-0.32,0.4-0.61,0.69c-0.14,0.14-0.41,0.4-0.78,0.68
		c-0.16,0.12-0.55,0.4-1.11,0.69c-0.6,0.31-1.09,0.45-1.53,0.59c-0.29,0.09-1,0.29-1.98,0.42c-0.29,0.04-1.09,0.14-2.25,0.12
		c-1.2-0.02-2.34-0.04-3.7-0.43c-0.7-0.2-1.88-0.55-3.07-1.5c-1.74-1.39-2.39-3.18-2.72-4.15c-0.34-1-0.44-1.76-0.58-2.89
		c-0.15-1.26-0.27-3.09-0.07-5.35c1.65,0.01,3.68,0.03,6.03,0.04c1.18,0,4.12,0.01,7.94,0c1.77,0,3.89-0.02,6.31-0.04l0.09,3.14
		L397.46,77.87z"/>
	<path style="fill:#182C54;" d="M387.1,68.66c0.47,0.02,1.7,0.06,2.5,0.94c0.1,0.12,0.16,0.2,0.27,0.36
		c0.44,0.66,0.62,1.3,0.81,2.24c0.14,0.7,0.29,1.56,0.4,2.55c2.1-0.01,4.21-0.02,6.31-0.04c-0.05-0.46-0.13-1.1-0.3-1.85
		c-0.16-0.73-0.38-1.7-0.9-2.8c-0.3-0.63-0.83-1.71-1.94-2.73c-1.27-1.18-2.59-1.63-3.25-1.85c-1.03-0.34-1.84-0.41-2.59-0.48
		c-1.04-0.09-2.59-0.22-4.47,0.31c-0.93,0.26-2.6,0.73-4.09,2.23c-1.2,1.21-1.7,2.58-1.97,3.33c-0.33,0.9-0.47,1.69-0.55,2.26
		l-0.23,1.59l6.03,0.04c0.03-0.31,0.08-0.8,0.17-1.39c0.19-1.29,0.3-2.01,0.71-2.84c0.24-0.49,0.48-0.98,1.02-1.34
		c0.42-0.28,0.87-0.39,1.05-0.43c0.11-0.03,0.49-0.11,1.02-0.09L387.1,68.66z"/>
</g>
<path style="fill:#A9353A;" d="M195.3,70.74c0.19,0.43,0.44,1.06,0.63,1.86c0.13,0.53,0.23,1.18,0.27,3.11
	c0.02,1.29,0.04,2.35-0.07,3.81c-0.14,1.89-0.35,2.59-0.53,3.07c-0.27,0.7-0.5,1.3-1.1,1.8c-0.95,0.8-2.11,0.78-2.44,0.77
	c-0.31,0-1.54-0.04-2.47-0.94c-0.66-0.63-0.84-1.38-1.1-2.47c-0.17-0.72-0.21-1.28-0.28-2.42c-0.06-0.91-0.05-1.57-0.05-2.46
	c0-1.59,0.07-2.53,0.12-3.04c0.02-0.28,0.09-0.96,0.29-1.82c0.13-0.55,0.23-0.82,0.32-1.01c0.12-0.26,0.31-0.7,0.69-1.11
	c0.69-0.74,1.55-0.94,1.82-0.99c0.71-0.15,1.29-0.05,1.64,0.02c0.32,0.06,0.53,0.14,0.64,0.19c0.33,0.14,0.54,0.31,0.65,0.4
	C194.84,69.92,195.14,70.43,195.3,70.74c2.34-1.8,4.68-3.6,7.02-5.4c-2.09,0-4.17,0-6.26,0c0,0.88,0,1.75,0,2.63
	c-0.22-0.27-0.45-0.54-0.67-0.81l-1.31-1.05c-0.47-0.3-1.18-0.68-2.11-0.93c-1.54-0.42-2.8-0.24-3.57-0.12
	c-0.88,0.13-1.88,0.28-2.96,0.97c-0.98,0.62-1.52,1.36-1.82,1.77c-0.77,1.06-1.07,2.05-1.32,2.93c-0.3,1.04-0.45,2.02-0.55,3.42
	c-0.12,1.68-0.26,3.98,0.2,7c0.29,1.91,0.7,3.29,1.45,4.58c0.34,0.59,0.61,0.91,0.79,1.11c1.13,1.24,2.49,1.64,3.25,1.86
	c0.51,0.15,1.98,0.53,3.82,0.22c0.53-0.09,1.26-0.22,2.1-0.64c1.51-0.77,2.33-1.99,2.69-2.63v3h6.27V65.34"/>
<polygon style="fill:#172B54;" points="300.46,65.34 300.46,58.81 306.73,58.81 306.73,65.34 310.14,65.34 310.14,68.73 
	306.77,68.73 306.7,88.64 300.46,88.64 300.46,68.75 297.02,68.76 297.02,65.34 "/>
<polygon style="fill:#172B54;" points="424.66,65.72 424.66,59.19 430.93,59.19 430.93,65.72 434.34,65.72 434.34,69.12 
	430.96,69.12 430.9,89.03 424.66,89.03 424.66,69.13 421.22,69.15 421.22,65.72 "/>
<polygon style="fill:#A9353A;" points="210.18,65.34 210.18,58.81 216.45,58.81 216.45,65.34 219.86,65.34 219.86,68.73 
	216.48,68.73 216.42,88.64 210.18,88.64 210.18,68.75 206.74,68.76 206.74,65.34 "/>
<path style="fill:#172B54;" d="M220.77,88.87V54.1h6.56c3.2,6.48,5.45,10.89,7,13.87c0.46,0.89,1.29,2.47,2.29,4.68
	c1.46,3.23,2.46,5.98,3.09,7.86c-0.5-2.18-0.94-4.62-1.25-7.3c-0.34-2.99-0.46-5.74-0.44-8.19l0.03-10.93h7.07v34.77h-6.61
	c-2.4-5.1-4.46-9.12-5.94-11.89c-1.13-2.12-2.11-3.89-3.29-6.56c-1.5-3.41-2.46-6.33-3.04-8.29l0.74,6.67l0.34,3.75l0.39,16.33
	h-6.93H220.77z"/>
<path style="fill:#172B54;" d="M264.71,65.32c0.83,0.07,1.93,0.26,3.11,0.78c1.86,0.82,2.93,2,3.17,2.27
	c0.75,0.85,1.14,1.64,1.35,2.06c0.58,1.18,0.76,2.17,0.96,3.23c0.29,1.58,0.29,2.8,0.29,3.57c0,1.73-0.22,3.05-0.32,3.6
	c-0.12,0.65-0.2,1.1-0.39,1.7c-0.2,0.63-0.62,1.93-1.72,3.27c-1,1.21-2.06,1.86-2.47,2.1c-1.4,0.8-2.65,1-3.67,1.16
	c-0.99,0.16-1.83,0.18-2.42,0.17l-0.14-4.01c0.35,0.02,0.97,0,1.63-0.28c0.93-0.41,1.39-1.13,1.65-1.52c0.82-1.19,0.87-2.42,0.9-3.7
	c0.16-6.98-0.58-8.65-1.22-9.36c-0.69-0.77-1.48-1.06-1.48-1.06c-0.54-0.2-1.03-0.22-1.31-0.22v-3.9"/>
<path style="fill:#172B54;" d="M260.67,65.32c-0.83,0.07-1.93,0.26-3.11,0.78c-1.86,0.82-2.93,2-3.17,2.27
	c-0.75,0.85-1.14,1.64-1.35,2.06c-0.58,1.18-0.76,2.17-0.96,3.23c-0.29,1.58-0.29,2.8-0.29,3.57c0,1.73,0.22,3.05,0.32,3.6
	c0.12,0.65,0.2,1.1,0.39,1.7c0.2,0.63,0.62,1.93,1.72,3.27c1,1.21,2.06,1.86,2.47,2.1c1.4,0.8,2.65,1,3.67,1.16
	c0.99,0.16,1.83,0.18,2.42,0.17l0.14-4.01c-0.35,0.02-0.97,0-1.63-0.28c-0.93-0.41-1.39-1.13-1.65-1.52
	c-0.82-1.19-0.87-2.42-0.9-3.7c-0.16-6.98,0.58-8.65,1.22-9.36c0.69-0.77,1.48-1.06,1.48-1.06c0.54-0.2,1.03-0.22,1.31-0.22v-3.9"/>
<path style="fill:#172B54;" d="M314.86,50.62v38.26h6.46V73.29c0.01-0.47,0.06-0.87,0.1-1.16c0.03-0.23,0.07-0.44,0.15-0.72
	c0.07-0.26,0.16-0.56,0.35-0.9c0.09-0.16,0.25-0.43,0.53-0.7c0.06-0.05,0.32-0.3,0.75-0.5c0.11-0.05,0.34-0.15,0.77-0.24
	c0.96-0.21,1.74-0.12,2.42-0.05c0.12,0.01,0.28,0.03,0.49,0.09c0.32,0.08,0.55,0.2,0.67,0.26c0.14,0.08,0.36,0.19,0.57,0.4
	c0.25,0.24,0.38,0.49,0.49,0.7c0.21,0.42,0.28,0.76,0.36,1.16c0.05,0.26,0.11,0.62,0.13,1.06l0.04,16.2h6.46V72.32
	c0.02-1.15-0.1-2.09-0.22-2.76c-0.15-0.84-0.22-1.26-0.52-1.76c-0.47-0.79-1.14-1.19-1.7-1.53c-0.34-0.21-1.04-0.59-2.18-0.86
	c-2.76-0.66-5.08,0.04-5.78,0.27c-0.33,0.11-1.42,0.48-2.33,1.16c-0.25,0.18-0.7,0.55-1.18,1.02c-0.16,0.16-0.29,0.3-0.39,0.4
	l0.02-17.64L314.86,50.62L314.86,50.62z"/>
<path style="fill:#172B54;" d="M354.65,65.57l-1.56,5.58c-0.48,1.47-0.94,3.04-1.36,4.71c-0.56,2.21-0.97,4.31-1.28,6.26l-0.72-3.91
	c-0.02-0.08-0.92-3.6-0.94-3.68c-0.11-0.45-2.17-8.47-2.29-8.93l-6.77-0.04l8.52,23.31h4.46l1.92-6.71
	c0.46-1.38,0.89-2.89,1.27-4.53c0.49-2.12,0.8-4.09,1-5.88c0.23,1.99,0.48,3.54,0.68,4.6c0.13,0.69,0.23,1.17,0.34,1.64
	c0.27,1.14,0.55,2.08,0.78,2.75l2.43,8.13h4.46l8.21-23.31h-6.32l-2.35,8.41c-0.22,0.73-0.44,1.49-0.64,2.27
	c-0.53,2.08-0.9,4.06-1.16,5.9l-0.55-3.38l-3.45-13.21"/>
<path style="fill:#182C54;" d="M416.84,66.04v4.03c-1.15-0.53-2.15-0.82-2.87-0.99c-1.27-0.3-2.11-0.49-3.18-0.24
	c-0.88,0.2-1.48,0.59-1.84,0.82c-0.42,0.28-0.68,0.52-0.88,0.83c-0.23,0.36-0.28,0.65-0.3,0.73c-0.02,0.12-0.06,0.39,0.04,0.71
	c0.06,0.18,0.14,0.32,0.23,0.47c0.04,0.07,0.14,0.22,0.31,0.42c0.25,0.29,0.48,0.48,0.57,0.55c0.61,0.5,1.29,0.93,1.37,0.98
	c0.36,0.23,0.88,0.55,1.6,0.93c0.69,0.37,0.86,0.41,1.55,0.8c0.3,0.17,0.57,0.34,0.87,0.52c0.37,0.22,0.64,0.39,1.01,0.63
	c0.38,0.25,0.6,0.39,0.89,0.63c0.11,0.09,0.33,0.27,0.58,0.51c0.31,0.3,0.6,0.58,0.87,0.98c0.45,0.66,0.61,1.28,0.68,1.58
	c0.14,0.55,0.15,0.98,0.15,1.24c0,0.41,0.02,1.27-0.37,2.29c-0.06,0.15-0.36,0.91-1.04,1.71c-0.63,0.74-1.26,1.15-1.73,1.44
	c-0.84,0.53-1.55,0.78-2,0.93c-1.15,0.4-2.08,0.5-2.9,0.59c-1.29,0.14-2.34,0.1-2.97,0.05c-0.4-0.03-1.21-0.11-2.24-0.33
	c-0.96-0.21-1.78-0.48-2.44-0.73v-4.17c1.24,0.66,2.35,0.98,3.13,1.14c0.28,0.06,1.33,0.27,2.64,0.24c0.36,0,1.03-0.04,1.8-0.26
	c0.29-0.08,0.51-0.16,0.72-0.27c0.26-0.13,0.62-0.32,0.93-0.71c0.26-0.32,0.36-0.63,0.41-0.78c0.24-0.75,0.07-1.39,0.04-1.52
	c-0.15-0.53-0.44-0.88-0.63-1.1c-0.09-0.11-0.29-0.32-0.84-0.72c-0.57-0.41-1.04-0.67-1.57-0.95c-0.8-0.43-1.1-0.58-1.56-0.83
	c-1.47-0.79-2.42-1.39-2.84-1.66c-0.4-0.26-0.86-0.57-1.39-1c-0.6-0.49-0.92-0.83-1.19-1.23c-0.17-0.26-0.27-0.47-0.33-0.59
	c-0.3-0.64-0.41-1.19-0.45-1.44s-0.14-0.95,0.01-1.78c0.24-1.35,0.98-2.24,1.28-2.6c2.03-2.45,5.86-2.75,7.12-2.85
	c1.24-0.1,3.25-0.1,5.68,0.64l1.1,0.35L416.84,66.04z"/>
<rect x="260.6" y="96.51" style="fill:#A9363A;" width="2.57" height="11.18"/>
<path style="fill:#A9363A;" d="M328.93,107.74V96.56h-2.58v4.17l0.17,2.24l0.43,2.09l-0.95-2.2l-1.01-1.83l-2.56-4.46h-2.4v11.18
	h2.53c0.02-1.51-0.01-3.14-0.14-4.87c-0.09-1.31-0.23-2.56-0.4-3.73c0.2,0.61,0.54,1.51,1.06,2.55c0.45,0.89,0.83,1.49,1.13,1.96
	c0.58,0.93,1.38,2.29,2.3,4.09"/>
<path style="fill:#A9363A;" d="M420.41,107.85V96.67h-2.58v4.17l0.17,2.24l0.43,2.09l-0.95-2.2l-1.01-1.83l-2.56-4.46h-2.4v11.18
	h2.53c0.02-1.51-0.01-3.14-0.14-4.87c-0.09-1.31-0.23-2.56-0.4-3.73c0.2,0.61,0.54,1.51,1.06,2.55c0.45,0.89,0.83,1.49,1.13,1.96
	c0.58,0.93,1.38,2.29,2.3,4.09"/>
<path style="fill:#A9363A;" d="M274.71,107.67V96.49h-2.58v4.17l0.17,2.24l0.43,2.09l-0.95-2.2l-1.01-1.83l-2.56-4.46h-2.4v11.18
	h2.53c0.02-1.51-0.01-3.14-0.14-4.87c-0.09-1.31-0.23-2.56-0.4-3.73c0.2,0.61,0.54,1.51,1.06,2.55c0.45,0.89,0.83,1.49,1.13,1.96
	c0.58,0.93,1.38,2.29,2.3,4.09"/>
<path style="fill:#A9363A;" d="M284.29,96.74v1.47c-0.29-0.14-0.67-0.28-1.12-0.37c-0.77-0.16-1.35-0.11-1.56-0.09
	c-0.2,0.02-0.34,0.06-0.47,0.09c-0.19,0.06-0.46,0.16-0.73,0.36c-0.11,0.08-0.2,0.15-0.29,0.27c-0.13,0.16-0.18,0.33-0.21,0.43
	c-0.1,0.41,0.05,0.75,0.11,0.89c0.1,0.19,0.22,0.31,0.36,0.45c0.2,0.19,0.37,0.3,0.49,0.38c1.01,0.64,0.42,0.3,1.01,0.65
	c0.86,0.52,0.81,0.47,1.13,0.68c0.42,0.27,0.7,0.45,1.03,0.73c0.39,0.33,0.6,0.51,0.79,0.83c0.37,0.6,0.37,1.2,0.37,1.36
	c0,0.18-0.03,0.81-0.47,1.42c-0.15,0.22-0.38,0.45-0.78,0.72c-0.25,0.16-1.11,0.68-2.6,0.79c-1.43,0.11-2.62-0.21-3.4-0.5v-1.49
	c0.28,0.14,0.67,0.29,1.15,0.41c0.58,0.15,1.03,0.17,1.16,0.17c0.52,0.02,0.89,0.04,1.32-0.13c0.28-0.11,0.75-0.29,0.99-0.77
	c0.35-0.71-0.12-1.46-0.16-1.52c-0.05-0.07-0.15-0.22-0.68-0.61c-0.44-0.33-0.8-0.54-1.5-0.96c-0.94-0.56-1.08-0.65-1.33-0.82
	c-0.67-0.48-0.85-0.63-0.95-0.76c-0.12-0.15-0.44-0.55-0.56-1.15c-0.03-0.14-0.16-0.92,0.26-1.65c0.2-0.35,0.48-0.6,0.57-0.68
	c0.15-0.13,0.3-0.23,0.36-0.26c0,0,0.22-0.14,0.47-0.26c0.81-0.36,1.87-0.45,1.87-0.45c1.25-0.1,2.38,0.12,2.99,0.27l0.37,0.1
	H284.29z"/>
<path style="fill:#A9363A;" d="M289.88,96.51h-2.52v7.61c0,0.21,0,0.52,0.04,0.88c0.06,0.59,0.1,0.95,0.31,1.35
	c0.2,0.38,0.46,0.6,0.54,0.67c0.25,0.2,0.47,0.29,0.77,0.41c0.26,0.1,0.72,0.26,1.36,0.34c0.24,0.03,0.55,0.03,1.16,0.04
	c0.61,0,0.92,0.01,1.2-0.01c0.59-0.05,1.02-0.16,1.28-0.23c0.47-0.12,0.7-0.18,0.96-0.34c0.47-0.29,0.7-0.66,0.76-0.74
	c0.08-0.14,0.17-0.32,0.26-0.65c0.16-0.64,0.13-1.14,0.11-1.67c-0.02-0.54,0.02-1.09,0.01-1.63c0-1.02,0-0.61,0.01-2.75
	c0-0.87,0-1.98,0-3.26h-2.52v2.33l0.01,3.18v2.81c-0.02,0.06-0.02,0.15-0.04,0.26c-0.02,0.15-0.03,0.25-0.05,0.37
	c-0.04,0.18-0.06,0.29-0.15,0.42c-0.11,0.17-0.24,0.26-0.3,0.29c-0.1,0.07-0.21,0.11-0.38,0.15c-0.24,0.06-0.48,0.09-0.78,0.09
	c-0.22,0-0.46,0.01-0.78-0.03c-0.41-0.05-0.61-0.08-0.78-0.22c-0.2-0.16-0.27-0.36-0.36-0.63c-0.1-0.28-0.12-0.52-0.14-0.77
	c-0.01-0.19-0.02-0.45,0-0.77v-7.48L289.88,96.51z"/>
<path style="fill:#A9363A;" d="M299.07,96.51v11.18h2.57v-5.47l3.49,5.47h2.6l-3.51-5.44c0.22-0.01,1.21-0.09,1.96-0.9
	c0.47-0.51,0.62-1.07,0.68-1.36c0.16-0.86-0.08-1.86-0.75-2.5c-0.38-0.36-0.78-0.5-1.24-0.66c-0.84-0.29-1.58-0.31-2.06-0.29v1.26
	c0.1,0.01,0.25,0.04,0.42,0.09c0.13,0.04,0.31,0.1,0.51,0.25c0.09,0.06,0.24,0.17,0.36,0.37c0.01,0.02,0.06,0.09,0.11,0.22
	c0.13,0.33,0.14,0.62,0.14,0.89c0,0.21,0,0.32-0.02,0.46c-0.03,0.17-0.08,0.44-0.28,0.7c-0.18,0.22-0.38,0.34-0.48,0.39
	c-0.12,0.06-0.21,0.09-0.32,0.12c-0.23,0.07-0.42,0.1-0.59,0.12c-0.38,0.05-0.75,0.06-1.05,0.06v-1.55v-2.16
	c0.04,0,0.56,0.02,0.6,0.02s0.54,0.02,0.57,0.02c0-0.42,0-0.84,0-1.26c-1.25,0-2.5-0.02-3.75-0.02L299.07,96.51z"/>
<path style="fill:#A9363A;" d="M315.27,105.5c0.24,0.73,0.48,1.45,0.72,2.18h2.54c-0.68-1.88-1.35-3.75-2.03-5.63l-2.06-5.55h-0.95
	v0.11c-0.03,0.69-0.06,1.38-0.09,2.06c0.5,1.89,1,3.77,1.49,5.66h-3.05l1.56-5.66c0.03-0.72,0.06-1.45,0.09-2.17h-1.05
	c-1.38,3.73-2.77,7.45-4.15,11.18h2.47c0.24-0.72,0.48-1.45,0.72-2.17c1.26,0,2.53,0,3.79,0L315.27,105.5z"/>
<path style="fill:#A9363A;" d="M406.78,105.67c0.24,0.73,0.48,1.45,0.72,2.18h2.54c-0.68-1.88-1.35-3.75-2.03-5.63l-2.06-5.55H405
	v0.11c-0.03,0.69-0.06,1.38-0.09,2.06c0.5,1.89,1,3.77,1.49,5.66h-3.05l1.56-5.66c0.03-0.72,0.06-1.45,0.09-2.17h-1.05
	c-1.38,3.73-2.77,7.45-4.15,11.18h2.47c0.24-0.72,0.48-1.45,0.72-2.17c1.26,0,2.53,0,3.79,0L406.78,105.67z"/>
<path style="fill:#A9363A;" d="M339.32,98.04v-1.35c-0.4-0.09-2.5-0.56-4.26-0.1c-0.36,0.09-1,0.26-1.66,0.76
	c-0.14,0.11-0.45,0.36-0.77,0.75c-0.08,0.1-0.39,0.5-0.66,1.12c-0.26,0.61-0.33,1.1-0.42,1.74c-0.12,0.83-0.1,1.45-0.1,1.64
	c0.01,0.38,0.03,0.82,0.16,1.4c0.09,0.4,0.21,0.92,0.56,1.51c0.04,0.07,0.28,0.46,0.64,0.83c0.83,0.85,1.89,1.13,2.48,1.28
	c1.71,0.43,3.23,0.12,4.04-0.11v-1.38c-0.19,0.05-0.43,0.1-0.72,0.15c-0.19,0.03-0.35,0.06-0.57,0.07c-0.33,0.02-0.58,0-0.76-0.02
	c-0.23-0.02-0.42-0.04-0.68-0.11c-0.31-0.08-0.53-0.19-0.59-0.22c-0.24-0.12-0.41-0.24-0.5-0.31c-0.11-0.08-0.28-0.22-0.45-0.43
	c-0.05-0.06-0.2-0.24-0.34-0.5c-0.18-0.33-0.26-0.61-0.32-0.82c-0.09-0.31-0.12-0.55-0.14-0.74c-0.05-0.37-0.05-0.66-0.05-0.95
	c0-0.46,0.02-0.84,0.05-1.1c0.03-0.35,0.06-0.58,0.14-0.9c0.05-0.19,0.12-0.47,0.27-0.8c0.09-0.2,0.22-0.46,0.46-0.74
	c0.42-0.48,0.92-0.68,1.12-0.75c0.31-0.12,0.56-0.15,0.8-0.18c0.25-0.03,0.65-0.07,1.14,0c0.23,0.03,0.53,0.08,0.86,0.19l0.25,0.06"
	/>
<path style="fill:#A9363A;" d="M363.38,98v-1.35c-0.4-0.09-2.5-0.56-4.26-0.1c-0.36,0.09-1,0.26-1.66,0.76
	c-0.14,0.11-0.45,0.36-0.77,0.75c-0.08,0.1-0.39,0.5-0.66,1.12c-0.26,0.61-0.33,1.1-0.42,1.74c-0.12,0.83-0.1,1.45-0.1,1.64
	c0.01,0.38,0.03,0.82,0.16,1.4c0.09,0.4,0.21,0.92,0.56,1.51c0.04,0.07,0.28,0.46,0.64,0.83c0.83,0.85,1.89,1.13,2.48,1.28
	c1.71,0.43,3.23,0.12,4.04-0.11v-1.38c-0.19,0.05-0.43,0.1-0.72,0.15c-0.19,0.03-0.35,0.06-0.57,0.07c-0.33,0.02-0.58,0-0.76-0.02
	c-0.23-0.02-0.42-0.04-0.68-0.11c-0.31-0.08-0.53-0.19-0.59-0.22c-0.24-0.12-0.41-0.24-0.5-0.31c-0.11-0.08-0.28-0.22-0.45-0.43
	c-0.05-0.06-0.2-0.24-0.34-0.5c-0.18-0.33-0.26-0.61-0.32-0.82c-0.09-0.31-0.12-0.55-0.14-0.74c-0.05-0.37-0.05-0.66-0.05-0.95
	c0-0.46,0.02-0.84,0.05-1.1c0.03-0.35,0.06-0.58,0.14-0.9c0.05-0.19,0.12-0.47,0.27-0.8c0.09-0.2,0.22-0.46,0.46-0.74
	c0.42-0.48,0.92-0.68,1.12-0.75c0.31-0.12,0.56-0.15,0.8-0.18c0.25-0.03,0.65-0.07,1.14,0c0.23,0.03,0.53,0.08,0.86,0.19l0.25,0.06"
	/>
<polygon style="fill:#A9363A;" points="348.3,96.51 341.48,96.51 341.48,107.68 348.3,107.68 348.3,106.37 344.02,106.37 
	344.09,102.57 347.82,102.59 347.8,101.31 344.04,101.31 344.05,97.76 348.3,97.78 "/>
<path style="fill:#A9363A;" d="M369.98,97.72l-0.06-1.36c-0.23,0-0.54,0.01-0.91,0.05c-0.4,0.04-0.79,0.08-1.24,0.22
	c-0.37,0.12-0.94,0.29-1.47,0.79c-0.41,0.39-0.62,0.81-0.72,1.02c-0.21,0.44-0.29,0.8-0.36,1.15c-0.08,0.36-0.1,0.65-0.15,1.24
	c-0.03,0.32-0.05,0.61-0.06,1c0,0.41,0.01,0.71,0.03,1.05c0.03,0.51,0.05,0.78,0.11,1.13c0.04,0.24,0.11,0.66,0.3,1.17
	c0.17,0.47,0.32,0.88,0.68,1.31c0.39,0.45,0.81,0.68,1.04,0.8c0.47,0.25,0.86,0.33,1.19,0.4c0.72,0.15,1.27,0.13,1.98,0.11
	c0.6-0.02,1-0.04,1.53-0.17s1-0.25,1.49-0.62c0.57-0.44,0.83-0.98,1.02-1.38c0.26-0.55,0.36-1.04,0.43-1.51
	c0.11-0.73,0.22-2,0.01-3.75l-0.24-1.21c-0.1-0.4-0.41-1.36-1.29-1.99c-0.68-0.48-1.49-0.63-1.73-0.67
	c-0.17-0.03-0.45-0.07-0.75-0.1c-0.37-0.03-0.68-0.04-0.9-0.04c0.02,0.45,0.04,0.91,0.06,1.36c0.08,0,1.19,0.06,1.6,0.6
	c0.13,0.17,0.22,0.37,0.22,0.37c0.1,0.21,0.14,0.38,0.21,0.67c0.05,0.2,0.07,0.36,0.08,0.39c0.09,0.52,0.12,0.99,0.13,1.22
	c0,0.19,0,0.16,0.02,1.51c0,0.42,0,0.58,0,0.84c0,0.14-0.03,0.46-0.09,0.89c-0.1,0.65-0.15,0.98-0.34,1.32
	c-0.08,0.15-0.21,0.36-0.45,0.54c-0.28,0.21-0.57,0.28-0.74,0.32c-0.21,0.05-0.37,0.05-0.55,0.05c-0.21,0-0.44,0-0.73-0.06
	c-0.15-0.04-0.34-0.08-0.57-0.22c-0.09-0.06-0.3-0.19-0.48-0.43c-0.13-0.18-0.19-0.35-0.24-0.49c-0.04-0.11-0.06-0.21-0.11-0.4
	c-0.02-0.09-0.05-0.22-0.08-0.35c-0.04-0.2-0.06-0.36-0.07-0.61c-0.02-0.31-0.05-0.59-0.06-1.03c0-0.21-0.01-0.42-0.02-0.7
	c0-0.42,0.03-0.92,0.08-1.89c0-0.07,0.01-0.27,0.05-0.53c0.01-0.1,0.05-0.33,0.12-0.6c0.06-0.24,0.12-0.37,0.14-0.44
	c0.06-0.13,0.11-0.22,0.15-0.27c0.05-0.08,0.1-0.13,0.14-0.17s0.09-0.1,0.18-0.16c0.07-0.05,0.13-0.08,0.21-0.12
	c0.11-0.05,0.2-0.09,0.22-0.09c0.17-0.06,0.31-0.09,0.41-0.11c0.06-0.01,0.15-0.02,0.25-0.03"/>
<polygon style="fill:#A9363A;" points="376.81,107.68 378.38,96.51 380.58,96.51 383.28,104.58 385.8,96.51 388.02,96.51 
	389.77,107.68 387.23,107.68 386.55,100.19 384.94,105.44 384.19,107.68 382.38,107.68 381.16,103.93 380.39,101.94 379.9,99.98 
	379.23,107.68 "/>
<path style="fill:#A9363A;" d="M421.96,96.51l3.98,6.37v4.81h2.57v-4.81l3.32-6.37h-2.7c-0.36,0.84-0.71,1.72-1.06,2.63
	c-0.32,0.84-0.61,1.67-0.88,2.47c-0.26-0.65-0.54-1.32-0.87-2.01c-0.53-1.14-1.09-2.17-1.64-3.09H421.96z"/>
<path style="fill:#A9363A;" d="M391.9,96.51v11.18h2.57v-4.96c0.79,0,1.45-0.04,1.93-0.08c1.05-0.1,1.43-0.23,1.63-0.31
	c0.34-0.13,0.78-0.31,1.18-0.73c0.49-0.51,0.63-1.1,0.69-1.38c0.1-0.42,0.09-0.75,0.09-0.85c0-0.18-0.03-0.74-0.34-1.28
	c-0.54-0.96-1.63-1.25-2.13-1.38c-0.34-0.09-0.66-0.12-1.29-0.17c-0.72-0.06-1.22-0.05-1.85-0.04
	C393.8,96.51,392.96,96.51,391.9,96.51c0.1,0.27,0.27,0.67,0.51,1.15c0.29,0.59,0.54,1.01,0.65,1.19c0.32,0.53,0.79,1.35,1.41,2.59
	v-3.66c0.12,0,0.28,0,0.48,0c0.29,0,0.5,0.02,0.76,0.07c0.21,0.04,0.48,0.1,0.78,0.28c0.14,0.08,0.32,0.19,0.47,0.39
	c0.16,0.21,0.22,0.43,0.25,0.56c0.06,0.23,0.06,0.42,0.07,0.63c0,0.18,0,0.28-0.02,0.39c-0.02,0.1-0.09,0.54-0.45,0.86
	c-0.21,0.18-0.43,0.25-0.6,0.3c-0.21,0.07-0.38,0.08-0.52,0.09c-0.43,0.03-0.83,0.06-1.22,0.09"/>
</svg>
